<?xml version="1.0" encoding="UTF-8" standalone="no"?><!DOCTYPE svg PUBLIC "-//W3C//DTD SVG 1.1//EN" "http://www.w3.org/Graphics/SVG/1.1/DTD/svg11.dtd"><svg width="100%" height="100%" viewBox="0 0 18196 19234" version="1.1" xmlns="http://www.w3.org/2000/svg" xmlns:xlink="http://www.w3.org/1999/xlink" xml:space="preserve" xmlns:serif="http://www.serif.com/" style="fill-rule:evenodd;clip-rule:evenodd;stroke-linejoin:round;stroke-miterlimit:2;"><rect id="Artboard1" x="0" y="0" width="18194" height="19230.9" style="fill:none;"/><path d="M13143.1,1745.66c266.4,0 482.688,216.288 482.688,482.688l-0,1986.05c-0,1065.61 -865.142,1930.75 -1930.75,1930.75l-882.692,0c-875.367,0 -1586.05,-710.683 -1586.05,-1586.05c-0,-1552.78 1260.66,-2813.45 2813.45,-2813.45l1103.37,0Zm-3916.81,5282.79c-0,-266.404 216.287,-482.688 482.692,-482.688l1986.05,0.001c1065.61,-0.001 1930.75,865.141 1930.75,1930.75l-0,882.691c-0,875.367 -710.688,1586.05 -1586.05,1586.05c-1552.78,0 -2813.45,-1260.66 -2813.45,-2813.45l-0,-1103.36Zm-4348.17,-5282.79l1103.36,0c1552.78,0 2813.45,1260.66 2813.45,2813.45c-0,875.367 -710.684,1586.05 -1586.05,1586.05l-882.692,0c-1065.61,0 -1930.75,-865.141 -1930.75,-1930.75l-0,-1986.05c-0,-266.4 216.283,-482.688 482.687,-482.688Zm3916.81,5282.79l-0,1103.36c-0,1552.78 -1260.66,2813.45 -2813.45,2813.45c-875.363,0 -1586.05,-710.683 -1586.05,-1586.05l-0,-882.691c-0,-1065.61 865.141,-1930.75 1930.75,-1930.75l1986.05,-0c266.404,-0 482.688,216.283 482.688,482.687Zm-7084.54,5989.62l801.471,0c218.466,0 373.85,65.2 466.146,195.604c54.195,77.054 81.291,165.967 81.291,266.734c0,117.7 -33.45,214.233 -100.341,289.595c-34.721,39.796 -84.68,76.209 -149.88,109.234c95.684,36.412 167.238,77.479 214.655,123.204c83.833,81.292 125.745,193.487 125.745,336.592c0,120.241 -37.679,229.054 -113.041,326.433c-112.621,145.646 -291.713,218.467 -537.279,218.467l-788.767,-0.001l-0,-1865.86Zm792.579,1649.94c154.958,-0.001 265.463,-44.88 331.513,-134.638c41.491,-56.733 62.237,-125.325 62.237,-205.767c0,-135.483 -60.546,-227.783 -181.633,-276.896c-64.354,-26.249 -149.459,-39.374 -255.304,-39.374l-501.713,-0l0,656.675l544.9,-0Zm-85.1,-861.171c106.692,-0 189.675,-14.817 248.95,-44.454c93.146,-46.575 139.717,-130.405 139.717,-251.492c-0,-121.938 -49.538,-204.075 -148.609,-246.413c-55.887,-23.708 -138.87,-35.562 -248.95,-35.562l-450.908,-0l0,577.921l459.8,-0Zm1308.26,-788.767l-0,1153.3c-0,135.484 25.404,248.104 76.208,337.863c75.362,135.483 202.379,203.225 381.05,203.225c214.233,-0 359.879,-73.246 436.933,-219.738c41.492,-79.596 62.238,-186.712 62.238,-321.35l-0,-1153.3l256.575,0l-0,1047.88c-0,229.475 -30.909,406.029 -92.725,529.658c-113.467,225.242 -327.7,337.863 -642.7,337.863c-315,0 -528.809,-112.621 -641.429,-337.862c-61.817,-123.63 -92.721,-300.184 -92.721,-529.659l-0,-1047.88l256.571,0Zm2962.01,0l0,222.275l-628.729,0l-0,1643.59l-256.571,0.001l0,-1643.59l-628.729,0l-0,-222.275l1514.03,-0Zm1588.97,0l-0,222.275l-628.729,0l-0,1643.59l-256.575,0.001l-0,-1643.59l-628.729,0l-0,-222.275l1514.03,-0Zm255.3,0l1360.34,0l-0,228.625l-1113.93,0l0,566.492l1030.1,-0l0,215.929l-1030.1,-0l0,632.537l1132.98,0l-0,222.28l-1379.4,-0l-0,-1865.86Zm1741.39,0l863.708,0c142.258,0 259.533,20.746 351.833,62.237c175.284,79.596 262.921,226.509 262.921,440.746c0,111.771 -23.071,203.225 -69.221,274.354c-46.15,71.13 -110.716,128.284 -193.7,171.471c72.821,29.638 127.65,68.588 164.484,116.854c36.837,48.267 57.37,126.592 61.604,234.98l8.891,250.221c2.542,71.129 8.467,124.054 17.784,158.77c15.241,59.275 42.337,97.38 81.287,114.313l0,41.916l-309.916,0.001c-8.467,-16.088 -15.242,-36.834 -20.325,-62.238c-5.08,-25.404 -9.313,-74.517 -12.7,-147.337l-15.242,-311.192c-5.929,-121.934 -51.229,-203.646 -135.908,-245.138c-48.267,-22.866 -124.05,-34.296 -227.359,-34.296l-575.383,0l-0,800.2l-252.758,0l-0,-1865.86Zm837.033,854.817c118.55,-0 212.329,-23.713 281.342,-71.129c69.012,-47.421 103.516,-132.946 103.516,-256.575c0,-132.942 -48.266,-223.546 -144.8,-271.813c-51.65,-25.404 -120.662,-38.104 -207.033,-38.104l-617.3,-0l-0,637.621l584.275,-0Zm1035.18,-854.817l1294.3,0l-0,228.625l-1041.53,0l-0,566.492l915.787,-0l0,222.279l-915.787,-0l-0,848.467l-252.763,-0l0,-1865.86Zm1564.84,0l252.762,0l0,1643.58l945,0l0,222.28l-1197.76,-0l-0,-1865.86Zm1110.12,0l294.675,0l536.009,896.729l536.008,-896.729l295.946,0l-704.938,1113.93l0,751.934l-252.762,-0l-0,-751.934l-704.938,-1113.93Zm-8453.54,2594.93c229.475,3.388 392.058,69.859 487.741,199.417c57.584,79.596 86.371,174.858 86.371,285.783c0,114.317 -28.787,206.192 -86.371,275.625c-32.175,38.955 -79.595,74.517 -142.258,106.696c95.688,34.717 167.875,89.759 216.563,165.121c48.691,75.363 73.033,166.813 73.033,274.354c-0,110.925 -27.942,210.421 -83.829,298.488c-35.563,58.425 -80.021,107.541 -133.367,147.337c-60.121,45.725 -131.037,77.059 -212.75,93.992c-81.717,16.937 -170.412,25.404 -266.1,25.404l-848.467,0l0,-1872.22l909.434,0Zm-536.004,1047.88l-0,499.171l459.795,-0c82.138,-0 146.067,-11.009 191.796,-33.021c82.984,-40.646 124.475,-118.55 124.475,-233.713c0,-97.379 -40.221,-164.271 -120.666,-200.683c-44.88,-20.325 -107.963,-30.908 -189.255,-31.754l-466.145,-0Zm-0,-722.721l-0,412.8l459.795,-0c82.138,-0 148.821,-15.454 200.05,-46.358c51.23,-30.909 76.846,-85.738 76.846,-164.488c0,-87.217 -33.871,-144.796 -101.612,-172.742c-58.429,-19.475 -132.946,-29.212 -223.55,-29.212l-411.529,-0Zm2034.8,-325.163l442.013,0l663.025,1872.22l-424.233,0l-120.667,-384.858l-689.696,-0l-129.554,384.858l-408.992,0l668.104,-1872.22Zm-24.133,1164.74l475.038,-0l-233.709,-736.692l-241.329,736.692Zm1360.34,-1164.74l410.262,0l745.583,1307l0,-1307l364.538,0l-0,1872.22l-391.208,0l-764.638,-1329.86l0,1329.86l-364.537,0l-0,-1872.22Zm1891.27,0l384.859,0l-0,771.205l722.721,-771.205l505.52,0l-767.175,771.009l806.55,1101.21l-502.983,0l-577.921,-816.433l-186.712,190.246l-0,626.187l-384.859,0l0,-1872.22Z" style="fill:#fff;"/></svg>