<?xml version="1.0" encoding="UTF-8" standalone="no"?><!DOCTYPE svg PUBLIC "-//W3C//DTD SVG 1.1//EN" "http://www.w3.org/Graphics/SVG/1.1/DTD/svg11.dtd"><svg width="100%" height="100%" viewBox="0 0 4367 4616" version="1.1" xmlns="http://www.w3.org/2000/svg" xmlns:xlink="http://www.w3.org/1999/xlink" xml:space="preserve" xmlns:serif="http://www.serif.com/" style="fill-rule:evenodd;clip-rule:evenodd;stroke-linejoin:round;stroke-miterlimit:2;"><rect id="Artboard1" x="-0" y="0" width="4366.55" height="4615.42" style="fill:none;"/><path d="M3154.34,418.958c63.936,0 115.845,51.909 115.845,115.845l-0,476.653c-0,255.747 -207.634,463.381 -463.381,463.381l-211.846,0c-210.088,0 -380.653,-170.564 -380.653,-380.652c0,-372.668 302.559,-675.227 675.227,-675.227l264.808,0Zm-940.035,1267.87c0,-63.937 51.909,-115.845 115.846,-115.845l476.653,-0c255.747,-0 463.381,207.634 463.381,463.381l-0,211.846c-0,210.088 -170.565,380.652 -380.653,380.652c-372.668,0 -675.227,-302.559 -675.227,-675.227l0,-264.807Zm-1043.56,-1267.87l264.807,0c372.668,0 675.227,302.559 675.227,675.227c0,210.088 -170.564,380.652 -380.652,380.652l-211.846,0c-255.747,0 -463.381,-207.634 -463.381,-463.381l-0,-476.653c-0,-63.936 51.908,-115.845 115.845,-115.845Zm940.034,1267.87l0,264.807c0,372.668 -302.559,675.227 -675.227,675.227c-210.087,0 -380.652,-170.564 -380.652,-380.652l-0,-211.846c-0,-255.747 207.634,-463.381 463.381,-463.381l476.653,-0c63.937,-0 115.845,51.908 115.845,115.845Zm-1700.29,1437.51l192.353,-0c52.432,-0 89.724,15.648 111.875,46.945c13.007,18.493 19.51,39.832 19.51,64.016c-0,28.248 -8.028,51.416 -24.082,69.503c-8.333,9.551 -20.323,18.29 -35.971,26.216c22.964,8.739 40.137,18.595 51.517,29.569c20.12,19.51 30.179,46.437 30.179,80.782c0,28.858 -9.043,54.973 -27.13,78.344c-27.029,34.955 -70.011,52.432 -128.947,52.432l-189.304,0l-0,-447.807Zm190.219,395.985c37.19,-0 63.711,-10.771 79.563,-32.313c9.958,-13.616 14.937,-30.078 14.937,-49.384c-0,-32.516 -14.531,-54.668 -43.592,-66.455c-15.445,-6.3 -35.87,-9.45 -61.273,-9.45l-120.411,0l0,157.602l130.776,-0Zm-20.424,-206.681c25.606,0 45.522,-3.556 59.748,-10.669c22.355,-11.178 33.532,-31.297 33.532,-60.358c0,-29.265 -11.889,-48.978 -35.666,-59.139c-13.413,-5.69 -33.329,-8.535 -59.748,-8.535l-108.218,-0l0,138.701l110.352,0Zm313.983,-189.304l0,276.793c0,32.516 6.097,59.545 18.29,81.087c18.087,32.516 48.571,48.774 91.452,48.774c51.416,-0 86.371,-17.579 104.864,-52.737c9.958,-19.103 14.937,-44.811 14.937,-77.124l0,-276.793l61.578,-0l-0,251.491c-0,55.074 -7.418,97.447 -22.254,127.118c-27.232,54.058 -78.648,81.087 -154.248,81.087c-75.6,-0 -126.914,-27.029 -153.943,-81.087c-14.836,-29.671 -22.253,-72.044 -22.253,-127.118l-0,-251.491l61.577,-0Zm710.883,-0l-0,53.346l-150.895,0l0,394.461l-61.577,0l-0,-394.461l-150.895,0l-0,-53.346l363.367,-0Zm381.353,-0l-0,53.346l-150.895,0l-0,394.461l-61.578,0l0,-394.461l-150.895,0l0,-53.346l363.368,-0Zm61.272,-0l326.482,-0l0,54.87l-267.343,0l-0,135.958l247.224,0l-0,51.823l-247.224,-0l-0,151.809l271.916,0l-0,53.347l-331.055,0l0,-447.807Zm417.934,-0l207.29,-0c34.142,-0 62.288,4.979 84.44,14.937c42.068,19.103 63.101,54.362 63.101,105.779c0,26.825 -5.537,48.774 -16.613,65.845c-11.076,17.071 -26.572,30.788 -46.488,41.153c17.477,7.113 30.636,16.461 39.476,28.045c8.841,11.584 13.769,30.382 14.785,56.395l2.134,60.053c0.61,17.071 2.032,29.773 4.268,38.105c3.658,14.226 10.161,23.371 19.509,27.435l0,10.06l-74.38,0c-2.032,-3.861 -3.658,-8.84 -4.878,-14.937c-1.219,-6.097 -2.235,-17.884 -3.048,-35.361l-3.658,-74.686c-1.423,-29.264 -12.295,-48.875 -32.618,-58.833c-11.584,-5.488 -29.772,-8.231 -54.566,-8.231l-138.092,-0l0,192.048l-60.662,0l-0,-447.807Zm200.888,205.156c28.452,-0 50.959,-5.691 67.522,-17.071c16.563,-11.381 24.844,-31.907 24.844,-61.578c0,-31.906 -11.584,-53.651 -34.752,-65.235c-12.396,-6.097 -28.959,-9.145 -49.688,-9.145l-148.152,-0l0,153.029l140.226,-0Zm248.443,-205.156l310.631,-0l-0,54.87l-249.968,0l0,135.958l219.789,0l-0,53.347l-219.789,0l0,203.632l-60.663,0l0,-447.807Zm375.561,-0l60.663,-0l-0,394.46l226.8,0l-0,53.347l-287.463,0l0,-447.807Zm266.429,-0l70.722,-0l128.642,215.215l128.642,-215.215l71.027,-0l-169.185,267.343l-0,180.464l-60.663,0l0,-180.464l-169.185,-267.343Zm-2028.85,622.784c55.074,0.813 94.094,16.766 117.058,47.86c13.82,19.103 20.729,41.966 20.729,68.588c0,27.436 -6.909,49.486 -20.729,66.15c-7.722,9.349 -19.103,17.884 -34.142,25.607c22.965,8.332 40.29,21.542 51.975,39.629c11.686,18.087 17.528,40.035 17.528,65.845c0,26.622 -6.706,50.501 -20.119,71.637c-8.535,14.022 -19.205,25.81 -32.008,35.361c-14.429,10.974 -31.449,18.494 -51.06,22.558c-19.612,4.065 -40.899,6.097 -63.864,6.097l-203.632,-0l0,-449.332l218.264,0Zm-128.641,251.492l-0,119.801l110.351,0c19.713,0 35.056,-2.642 46.031,-7.925c19.916,-9.755 29.874,-28.452 29.874,-56.091c-0,-23.371 -9.653,-39.425 -28.96,-48.164c-10.771,-4.878 -25.911,-7.418 -45.421,-7.621l-111.875,-0Zm-0,-173.453l-0,99.072l110.351,0c19.713,0 35.717,-3.709 48.012,-11.126c12.295,-7.418 18.443,-20.577 18.443,-39.477c-0,-20.932 -8.129,-34.751 -24.387,-41.458c-14.023,-4.674 -31.907,-7.011 -53.652,-7.011l-98.767,-0Zm488.351,-78.039l106.083,0l159.126,449.332l-101.816,-0l-28.96,-92.366l-165.527,-0l-31.093,92.366l-98.158,-0l160.345,-449.332Zm-5.792,279.537l114.009,-0l-56.09,-176.806l-57.919,176.806Zm326.481,-279.537l98.463,0l178.94,313.679l0,-313.679l87.489,0l-0,449.332l-93.89,-0l-183.513,-319.166l0,319.166l-87.489,-0l0,-449.332Zm453.905,0l92.366,0l-0,185.089l173.453,-185.089l121.325,0l-184.122,185.042l193.572,264.29l-120.716,-0l-138.701,-195.944l-44.811,45.659l-0,150.285l-92.366,-0l-0,-449.332Z" style="fill:#212121;"/></svg>