<?xml version="1.0" encoding="UTF-8" standalone="no"?><!DOCTYPE svg PUBLIC "-//W3C//DTD SVG 1.1//EN" "http://www.w3.org/Graphics/SVG/1.1/DTD/svg11.dtd"><svg width="100%" height="100%" viewBox="0 0 434 224" version="1.1" xmlns="http://www.w3.org/2000/svg" xmlns:xlink="http://www.w3.org/1999/xlink" xml:space="preserve" xmlns:serif="http://www.serif.com/" style="fill-rule:evenodd;clip-rule:evenodd;stroke-linejoin:round;stroke-miterlimit:2;"><rect id="Artboard1" x="0" y="0" width="433.703" height="223.79" style="fill:none;"/><path d="M131.102,36.145l-95.575,0c-3.597,0 -6.51,2.914 -6.51,6.511c-0,3.597 2.913,6.51 6.51,6.51l95.575,0c3.597,0 6.511,-2.913 6.511,-6.51c-0,-3.597 -2.914,-6.511 -6.511,-6.511Z" style="fill-rule:nonzero;"/><path d="M125.961,78.27l-55.713,0c-3.597,0 -6.51,2.914 -6.51,6.511c-0,3.597 2.913,6.51 6.51,6.51l55.713,0c3.597,0 6.51,-2.913 6.51,-6.51c0,-3.597 -2.913,-6.511 -6.51,-6.511Z" style="fill-rule:nonzero;"/><path d="M120.815,120.329l-85.288,-0c-3.597,-0 -6.51,2.913 -6.51,6.51c-0,3.597 2.913,6.511 6.51,6.511l85.288,-0c3.597,-0 6.51,-2.914 6.51,-6.511c0,-3.597 -2.913,-6.51 -6.51,-6.51Z" style="fill-rule:nonzero;"/><path d="M115.606,162.45l-29.085,-0c-3.597,-0 -6.51,2.913 -6.51,6.51c-0,3.597 2.913,6.51 6.51,6.51l29.085,0c3.597,0 6.511,-2.913 6.511,-6.51c-0,-3.597 -2.914,-6.51 -6.511,-6.51Z" style="fill-rule:nonzero;"/><path d="M394.986,32.875l-218.196,-0l96.825,100l121.371,-100Z" style="fill-rule:nonzero;"/><path d="M277.261,146.741c-1.205,0.993 -2.67,1.481 -4.134,1.481c-1.709,0 -3.402,-0.667 -4.688,-1.985l-24.707,-25.521l-85.204,70.2l218.296,-0l-67.967,-70.217l-31.592,26.026l-0.004,0.016Z" style="fill-rule:nonzero;"/><path d="M387.336,183.087l17.35,-141.325l-85.758,70.654l68.408,70.671Z" style="fill-rule:nonzero;"/><path d="M148.877,182.029l85.775,-70.671l-68.425,-70.671l-17.35,141.342Z" style="fill-rule:nonzero;"/></svg>